# xmcd
#
# Track frame offsets:
#	150
#	18342
#	38624
#	55142
#	75230
#	97593
#	112019
#	130140
#	147234
#	165308
#	180463
#	197254
#	214678
#	240959
#	258367
#	275348
#	293138
#	307380
#
# Disc length: 4327 seconds
#
# Revision: 2
# Processed by: cddbd v1.4PL0 Copyright (c) Steve Scherf et al.
# Submitted via: CDmax 1.9
#
DISCID=e410e512
DTITLE=Hot Chocolate - The Very Best Of Hot Chocolate
DYEAR=1900
DGENRE=
TTITLE0=It Started With A Kiss
TTITLE1=So You Win Again
TTITLE2=I Gave You My Heart (Didn't I?)
TTITLE3=No Doubt About It
TTITLE4=Brother Louie
TTITLE5=Tears On The Telephone
TTITLE6=Chances
TTITLE7=You Could've Been A Lady
TTITLE8=Every 1's A Winner
TTITLE9=Girl Crazy
TTITLE10=You Sexy Thing
TTITLE11=I'll Put You Together Again
TTITLE12=Are You Getting Enough
TTITLE13=Emma
TTITLE14=what Kinda Boy You're Lookin' For (Girl)
TTITLE15=Heaven Is In The Back Seat Of My Cadillac
TTITLE16=Disco Queen
TTITLE17=Heartache No. 9
EXTD=
EXTT0=
EXTT1=
EXTT2=
EXTT3=
EXTT4=
EXTT5=
EXTT6=
EXTT7=
EXTT8=
EXTT9=
EXTT10=
EXTT11=
EXTT12=
EXTT13=
EXTT14=
EXTT15=
EXTT16=
EXTT17=
PLAYORDER=
